<svg width="400" height="400" viewBox="0 0 400 400" fill="none" xmlns="http://www.w3.org/2000/svg">
<path d="M331.312 188.929C325.282 194.959 325.282 204.759 331.291 210.821L350.032 229.661L296.708 176.391C299.066 171.784 302.195 167.471 306.03 163.635L350.597 119.068C359.376 110.267 364.211 98.6092 364.211 86.1798C364.211 73.7505 359.365 62.0925 350.597 53.292C341.819 44.5132 330.139 39.6783 317.71 39.6783C305.28 39.6783 293.601 44.524 284.843 53.292L229.183 108.931L207.029 86.7991C206.932 86.6796 206.812 86.5818 206.693 86.4623L203.9 83.6483L259.539 28.0095C275.054 12.4619 295.708 3.90039 317.72 3.90039C339.733 3.90039 360.387 12.4619 375.913 28.0095C391.438 43.5353 400 64.1894 400 86.169C400 108.149 391.438 128.813 375.891 144.328L331.323 188.929H331.312Z" fill="url(#paint0_linear_4010_88)"/>
<path d="M375.934 255.682L350.087 229.715L350.043 229.672L296.719 176.401L229.205 108.942L207.051 86.81C206.953 86.6905 206.834 86.5927 206.714 86.4732L203.922 83.6592L148.262 27.9986C116.167 -4.07441 63.983 -4.07441 31.8883 27.9986C-0.195567 60.0825 -0.195565 112.266 31.91 144.339L73.2182 185.669C95.0673 207.518 130.617 207.518 152.466 185.669L203.9 134.235L324.717 254.954L350.619 280.976C359.398 289.733 364.233 301.412 364.233 313.842C364.233 326.271 359.387 337.951 350.598 346.73C341.819 355.508 330.161 360.343 317.731 360.343C305.302 360.343 293.644 355.497 284.844 346.73L240.156 302.021C220.176 282.084 187.647 282.084 167.655 302.042L122.947 346.73C114.189 355.508 102.51 360.343 90.0804 360.343C77.651 360.343 65.9713 355.497 57.1925 346.708C46.4146 335.952 41.8622 320.763 44.2199 306.291C47.6532 306.986 51.206 307.344 54.8566 307.344C85.0934 307.344 109.702 282.736 109.702 252.499C109.702 222.262 85.0934 197.653 54.8566 197.653C24.6197 197.653 0 222.229 0 252.466C0 265.537 4.60669 277.575 12.2773 286.995C2.21643 316.254 9.46328 349.576 31.8774 371.99C47.4033 387.538 68.0574 396.099 90.0695 396.099C112.082 396.099 132.736 387.538 148.229 371.99L192.916 327.325C198.979 321.262 208.8 321.262 214.852 327.303L259.518 371.99C275.065 387.538 295.719 396.099 317.71 396.099C339.7 396.099 360.354 387.538 375.869 372.012C391.417 356.486 399.978 335.81 399.978 313.82C399.978 291.829 391.417 271.154 375.913 255.682H375.934ZM127.184 160.365C119.263 168.285 106.41 168.264 98.5224 160.365L57.1925 119.057C39.07 100.913 39.07 71.4145 57.1925 53.2811C66.2538 44.2198 78.1834 39.6892 90.0804 39.6892C101.977 39.6892 113.907 44.2198 122.968 53.2811L178.607 108.92L127.195 160.354L127.184 160.365ZM35.767 252.466C35.767 241.927 44.3068 233.388 54.8457 233.388C65.3846 233.388 73.9244 241.927 73.9244 252.466C73.9244 263.005 65.3846 271.545 54.8457 271.545C44.3068 271.545 35.767 263.005 35.767 252.466Z" fill="url(#paint1_linear_4010_88)"/>
<path d="M54.8457 233.388C65.3846 233.388 73.9244 241.928 73.9244 252.466C73.9244 263.005 65.3846 271.545 54.8457 271.545C44.3068 271.545 35.7671 263.005 35.7671 252.466C35.7671 241.928 44.3068 233.388 54.8457 233.388ZM54.8457 197.61C24.598 197.61 0 222.219 0 252.456C0 282.692 24.6089 307.301 54.8457 307.301C85.0826 307.301 109.691 282.692 109.691 252.456C109.691 222.219 85.0826 197.61 54.8457 197.61Z" fill="url(#paint2_linear_4010_88)"/>
<path d="M178.596 108.919L203.9 134.224L175.011 163.113L149.848 137.69L178.596 108.919Z" fill="url(#paint3_linear_4010_88)"/>
<defs>
<linearGradient id="paint0_linear_4010_88" x1="358.844" y1="14.863" x2="263.624" y2="179.78" gradientUnits="userSpaceOnUse">
<stop stop-color="#68AAFF"/>
<stop offset="1" stop-color="#2563EB"/>
</linearGradient>
<linearGradient id="paint1_linear_4010_88" x1="265.884" y1="92.6553" x2="85.0066" y2="405.943" gradientUnits="userSpaceOnUse">
<stop stop-color="#68AAFF"/>
<stop offset="1" stop-color="#2563EB"/>
</linearGradient>
<linearGradient id="paint2_linear_4010_88" x1="82.2686" y1="204.976" x2="27.4337" y2="299.957" gradientUnits="userSpaceOnUse">
<stop stop-color="#68AAFF"/>
<stop offset="1" stop-color="#2563EB" stop-opacity="0"/>
</linearGradient>
<linearGradient id="paint3_linear_4010_88" x1="191.243" y1="121.577" x2="162.364" y2="150.456" gradientUnits="userSpaceOnUse">
<stop stop-color="#2563EB" stop-opacity="0.6"/>
<stop offset="1" stop-color="#2563EB" stop-opacity="0"/>
</linearGradient>
</defs>
</svg>
